<?xml version="1.0" encoding="UTF-8"?>
<!DOCTYPE svg PUBLIC "-//W3C//DTD SVG 1.1//EN" "http://www.w3.org/Graphics/SVG/1.1/DTD/svg11.dtd">
<!-- Creator: CorelDRAW X7 -->
<svg xmlns="http://www.w3.org/2000/svg" xml:space="preserve" width="5.69583in" height="1.9998in" version="1.1" style="shape-rendering:geometricPrecision; text-rendering:geometricPrecision; image-rendering:optimizeQuality; fill-rule:evenodd; clip-rule:evenodd"
viewBox="0 0 5696 2000"
 xmlns:xlink="http://www.w3.org/1999/xlink">
 <defs>
  <style type="text/css">
   <![CDATA[
    .fil3 {fill:#00A859}
    .fil2 {fill:#3E4095}
    .fil0 {fill:#373435;fill-rule:nonzero}
    .fil1 {fill:#3E4095;fill-rule:nonzero}
   ]]>
  </style>
 </defs>
 <g id="Layer_x0020_1">
  <metadata id="CorelCorpID_0Corel-Layer"/>
  <g id="_1675713352048">
   <path class="fil0" d="M320 660l77 -150c17,-34 31,-63 41,-87 12,-28 18,-47 18,-59 0,-22 -7,-36 -22,-43l-14 -8c-4,-2 -7,-4 -7,-5 0,-4 2,-5 6,-5l24 1c15,2 27,3 37,3 13,0 25,-1 38,-3l20 -1c5,0 7,1 7,4 0,2 -1,4 -2,5l-6 5c-13,9 -29,28 -46,56 -15,24 -33,57 -55,101l-120 239c-8,16 -13,26 -16,31 -2,4 -4,6 -6,6l-2 0c0,0 -3,-4 -7,-13l-8 -18c-1,-2 -2,-4 -3,-6l-152 -297c-28,-56 -50,-89 -66,-99 -7,-4 -11,-7 -11,-9 0,-4 5,-5 13,-5l25 1c14,2 26,3 36,3 10,0 21,-1 35,-3l23 -1c11,0 16,1 16,4 0,2 -1,3 -3,5l-10 7c-9,5 -13,15 -13,28 0,12 10,39 30,80l123 233z"/>
   <path id="1" class="fil0" d="M688 590c0,86 12,132 35,139l5 1c2,0 4,1 4,1 3,1 4,3 4,4 0,2 -1,2 -3,3 -2,0 -4,1 -7,1l-49 -2 -88 2c-4,0 -7,-1 -7,-4 0,-2 5,-6 14,-10 21,-9 31,-48 31,-117l0 -242c0,-7 -3,-13 -9,-17 -2,-1 -4,-3 -9,-5l-4 -2c-2,-1 -4,-2 -5,-2 -5,-2 -8,-4 -8,-5 0,-2 2,-4 6,-5l90 -23 0 283zm-30 -424c26,0 39,13 39,39 0,27 -13,40 -39,40 -26,0 -39,-13 -39,-40 0,-26 13,-39 39,-39z"/>
   <path id="2" class="fil0" d="M1158 395c-2,7 -4,11 -7,11 -2,0 -6,-6 -10,-19 -7,-24 -25,-42 -55,-55 -26,-11 -54,-17 -85,-17 -32,0 -59,7 -81,20 -25,16 -38,38 -38,66 0,36 18,60 55,74 13,5 30,8 51,11l77 7c10,1 19,3 28,4 21,4 38,9 52,15 37,17 56,46 56,86 0,49 -24,88 -71,116 -39,24 -85,36 -137,36 -42,0 -79,-3 -110,-9 -39,-7 -73,-19 -103,-36l17 -53c4,-11 6,-18 8,-22 3,-5 5,-7 7,-7 2,0 4,2 5,5l5 13c11,31 34,54 70,70 28,12 61,18 99,18 38,0 70,-6 95,-19 32,-17 49,-42 49,-76 0,-36 -19,-60 -55,-72 -14,-5 -31,-8 -52,-11 -7,-1 -16,-1 -27,-2l-26 -2c-18,-1 -36,-5 -53,-10 -20,-5 -37,-12 -52,-21 -36,-22 -54,-51 -54,-89 0,-45 22,-80 68,-104 19,-10 40,-17 64,-22 22,-5 43,-7 66,-7 57,0 113,12 166,35l-22 66z"/>
   <path id="3" class="fil0" d="M1378 590c0,86 11,132 34,139l6 1c1,0 3,1 4,1 2,1 4,3 4,4 0,2 -2,2 -4,3 -2,0 -4,1 -6,1l-50 -2 -88 2c-4,0 -6,-1 -6,-4 0,-2 4,-6 14,-10 20,-9 30,-48 30,-117l0 -242c0,-7 -2,-13 -8,-17 -2,-1 -5,-3 -9,-5l-5 -2c-2,-1 -4,-2 -5,-2 -5,-2 -7,-4 -7,-5 0,-2 2,-4 5,-5l91 -23 0 283zm-31 -424c26,0 39,13 39,39 0,27 -13,40 -39,40 -26,0 -39,-13 -39,-40 0,-26 13,-39 39,-39z"/>
   <path id="4" class="fil0" d="M1490 352c-11,0 -16,-2 -16,-5 0,-3 5,-7 14,-11 23,-13 43,-28 60,-47 19,-21 31,-45 38,-71 2,-8 5,-12 9,-12 3,0 4,4 4,11l0 114 73 0c8,0 12,1 12,4l-4 17 -81 0 0 145c0,33 1,61 2,84 2,29 4,52 8,72 9,44 26,70 49,76 4,0 6,2 6,3 0,2 -5,3 -14,3l-26 2c-10,0 -19,0 -26,0 -23,0 -39,-5 -46,-14 -9,-13 -14,-39 -14,-79l0 -292 -48 0z"/>
   <path class="fil1" d="M663 935c40,0 74,34 103,100l0 10c0,40 -100,153 -300,342 -108,106 -186,191 -234,253l3 0c194,-182 319,-274 374,-274 72,21 107,55 107,104l0 3c-13,76 -81,186 -203,328 -117,119 -221,178 -313,178l-4 0c-57,-10 -86,-39 -86,-86 0,-24 11,-45 32,-64l4 0 4 4 3 0 -3 43 0 3c3,24 13,36 32,36l7 0c72,0 170,-86 296,-256 71,-104 107,-177 107,-221 -55,7 -154,76 -296,206 -152,166 -230,249 -236,249 0,5 -5,7 -17,7 -29,-2 -43,-16 -43,-42 0,-46 58,-141 174,-285 69,-90 207,-257 414,-499 37,-48 61,-83 71,-107l-4 -29 4 -3 4 0z"/>
   <path id="1" class="fil1" d="M1141 1062c21,0 46,19 74,58l0 4c-11,40 -77,99 -199,179l-35 16 -3 -4 0 -4c34,-92 85,-175 151,-249l12 0zm-261 300l16 0c34,0 64,25 89,77l4 12c0,13 -48,72 -144,175 -140,158 -210,271 -210,339l8 7 0 8c-60,0 -90,-26 -90,-78 0,-78 108,-248 323,-510l8 -19 -4 -11z"/>
   <path id="2" class="fil1" d="M1187 1366c53,20 79,43 81,69 1,27 -77,129 -234,308 240,-217 382,-327 428,-330 5,-1 9,-1 12,0 53,19 79,44 79,75 0,12 -39,63 -118,154 -81,108 -122,192 -122,252 0,50 16,74 47,74 1,2 1,3 0,5 -6,13 -19,19 -39,19l-4 0c-66,-9 -102,-53 -107,-130l0 -16c0,-80 57,-193 170,-338l4 -7 -4 3c-99,65 -246,195 -442,390 -34,43 -52,70 -56,80 -3,11 -3,19 2,26 -58,-7 -87,-28 -88,-64l1 -21c0,-26 51,-108 153,-246l174 -240 0 -4 -4 0c-60,37 -93,56 -99,58 -7,2 -11,1 -14,-2 -3,-4 -2,-10 4,-19 76,-64 135,-96 176,-96z"/>
   <path id="3" class="fil1" d="M2090 896c74,34 111,72 111,115 0,45 -76,140 -228,284 -169,180 -283,322 -343,427l0 4c144,-134 281,-252 412,-354l19 -7c28,0 57,23 88,70l0 21c-157,152 -235,291 -235,417l0 19c2,39 11,59 25,59l0 10 -18 4c-46,0 -82,-43 -107,-129l-3 -26c0,-80 45,-180 136,-298l0 -4c-81,57 -208,173 -380,346l-121 137 -11 0c-25,-18 -37,-43 -37,-74 0,-70 126,-258 379,-564 161,-199 262,-335 303,-405l3 -18 -3 -30 3 -4 7 0z"/>
   <path id="4" class="fil1" d="M3046 930c27,0 59,28 96,85l0 7c-6,79 -194,273 -565,583 -93,128 -139,231 -139,309 0,43 15,64 43,64l0 11 -21 0c-53,0 -86,-39 -100,-117l0 -18c0,-38 7,-77 21,-117 -134,155 -228,237 -281,245 -45,0 -85,-38 -117,-114l0 -28c0,-96 67,-207 199,-334 108,-95 200,-143 274,-143 22,0 48,26 78,78l0 8 164 -217c178,-202 294,-302 348,-302zm-433 590l3 0c240,-218 389,-368 444,-448l15 -28 -4 0c-66,44 -166,136 -299,273 -106,124 -159,191 -159,203zm-552 370c4,11 8,16 15,17 63,-18 181,-114 355,-287 47,-56 71,-100 75,-132 -2,-10 -10,-15 -22,-15l-14 0c-86,0 -196,79 -331,235 -52,73 -78,134 -78,182z"/>
   <path id="5" class="fil1" d="M3140 1062c21,0 46,19 74,58l0 4c-11,40 -77,99 -199,179l-34 16 -4 -4 0 -4c34,-92 85,-175 152,-249l11 0zm-261 300l16 0c35,0 64,25 90,77l3 12c0,13 -48,72 -144,175 -139,158 -209,271 -209,339l7 7 0 8c-59,0 -89,-26 -89,-78 0,-78 107,-248 323,-510l7 -19 -4 -11z"/>
   <path id="6" class="fil1" d="M3187 1366c52,20 79,43 80,69 1,27 -77,129 -234,308 240,-217 383,-327 428,-330 5,-1 10,-1 13,0 53,19 79,44 79,75 0,12 -40,63 -118,154 -82,108 -122,192 -122,252 0,50 15,74 47,74 1,2 1,3 0,5 -6,13 -19,19 -40,19l-4 0c-66,-9 -101,-53 -106,-130l0 -16c0,-80 56,-193 169,-338l5 -7 -5 3c-98,65 -245,195 -441,390 -34,43 -53,70 -56,80 -4,11 -3,19 1,26 -58,-7 -87,-28 -87,-64l0 -21c0,-26 51,-108 154,-246l173 -240 0 -4 -4 0c-60,37 -93,56 -99,58 -6,2 -11,1 -13,-2 -3,-4 -2,-10 3,-19 76,-64 135,-96 177,-96z"/>
   <path id="7" class="fil1" d="M4090 896c74,34 111,72 111,115 0,45 -77,140 -229,284 -168,180 -282,322 -342,427l0 4c144,-134 281,-252 412,-354l19 -7c27,0 57,23 88,70l0 21c-157,152 -235,291 -235,417l0 19c2,39 10,59 25,59l0 10 -19 4c-46,0 -81,-43 -107,-129l-3 -26c0,-80 45,-180 136,-298l0 -4c-81,57 -207,173 -379,346l-122 137 -10 0c-25,-18 -38,-43 -38,-74 0,-70 127,-258 380,-564 161,-199 261,-335 302,-405l4 -18 -4 -30 4 -4 7 0z"/>
   <polygon class="fil0" points="4186,1984 4186,1903 4234,1903 4234,1984 "/>
   <path id="1" class="fil0" d="M4689 1880c-38,75 -96,112 -175,112 -52,0 -97,-17 -133,-53 -37,-35 -56,-79 -56,-131 0,-51 19,-95 56,-131 37,-36 81,-54 133,-54 39,0 74,10 105,31 32,21 56,49 70,84l-50 0c-26,-49 -67,-74 -124,-74 -40,0 -74,14 -102,41 -29,28 -43,62 -43,102 0,41 14,75 42,103 28,28 62,42 103,42 58,0 99,-24 124,-72l50 0z"/>
   <path id="2" class="fil0" d="M5109 1808c0,50 -18,93 -54,130 -36,36 -80,54 -130,54 -50,0 -92,-18 -129,-54 -36,-36 -54,-78 -54,-128 0,-51 18,-95 53,-131 36,-37 79,-56 130,-56 50,0 93,18 130,55 36,36 54,79 54,130zm-45 -2c0,-39 -13,-72 -40,-100 -27,-28 -60,-42 -98,-42 -40,0 -73,14 -100,44 -26,28 -39,62 -39,102 0,38 13,71 40,99 27,29 60,43 99,43 39,0 73,-15 99,-44 26,-28 39,-62 39,-102z"/>
   <path id="3" class="fil0" d="M5651 1984l0 -204c0,-34 -8,-61 -22,-82 -17,-23 -41,-34 -74,-34 -33,0 -57,11 -74,34 -14,21 -22,48 -22,82l0 204 -45 0 0 -204c0,-34 -7,-61 -22,-82 -16,-23 -41,-34 -73,-34 -33,0 -58,11 -74,34 -15,21 -22,48 -22,82l0 204 -45 0 0 -352 45 0 0 41c21,-33 53,-50 96,-50 53,0 93,23 118,68 28,-45 67,-68 118,-68 44,0 79,15 104,44 25,27 37,63 37,108l0 209 -45 0z"/>
   <g>
    <path class="fil2" d="M5301 732c39,0 39,6 75,34 19,15 35,28 54,43l109 86c-11,39 -88,129 -129,162 -5,4 -6,6 -12,10 -8,6 -19,17 -28,19l-223 -215c4,-7 9,-11 15,-19l54 -57c3,-4 45,-48 56,-54 7,-5 17,-9 29,-9zm-729 122l196 -196c53,-41 93,4 118,30l192 183c26,23 51,53 75,75l177 169 -56 26c-39,18 -84,30 -129,37 -133,20 -281,-12 -389,-94 -10,-7 -18,-13 -28,-21 -9,-7 -19,-15 -28,-24 -46,-47 -81,-90 -112,-149 -6,-13 -10,-24 -16,-36zm-52 -9c0,15 26,67 33,80 35,58 45,78 97,130 101,101 243,176 395,176 83,0 147,-5 221,-35 38,-15 70,-29 105,-51 6,-4 10,-6 16,-10 65,-43 130,-109 171,-175 56,-91 45,-74 -26,-132 -19,-15 -152,-122 -172,-133 -50,-27 -104,-10 -144,30l-42 45c-16,16 -43,52 -65,66 -8,-12 -20,-21 -32,-31l-67 -67c-7,-6 -11,-7 -18,-14 -7,-6 -11,-11 -17,-17 -20,-21 -83,-82 -103,-95 -25,-17 -43,-16 -71,-16 -41,0 -63,24 -85,45l-167 167c-7,8 -29,26 -29,37z"/>
    <path class="fil3" d="M5065 244c0,-10 4,-33 5,-41 10,-48 41,-92 79,-119 19,-14 44,-26 68,-31 56,-13 108,-3 154,28 21,15 35,28 50,49 79,113 15,269 -56,359l-85 86c-6,5 -13,10 -20,15 -3,-5 -12,-11 -17,-15 -16,-13 -40,-34 -52,-50 -27,-33 -20,-15 -61,-76 -37,-55 -65,-134 -65,-205zm-46 -14c0,105 28,189 80,260 12,17 21,29 34,44l38 41c16,16 69,67 92,67 33,0 139,-118 159,-149 23,-34 37,-57 54,-99 30,-76 43,-181 5,-257 -15,-29 -26,-44 -48,-66 -94,-95 -250,-94 -344,0 -33,33 -70,94 -70,159z"/>
    <path class="fil2" d="M4485 622c0,27 -4,123 15,138 7,6 16,8 25,4 27,-12 6,-51 6,-113 0,-107 37,-226 100,-310l56 -68 52 -44c69,-52 133,-83 219,-101 59,-11 35,-42 27,-47 -26,-17 -157,38 -179,49 -126,63 -205,151 -267,273 -25,49 -54,146 -54,219z"/>
    <path class="fil3" d="M5263 297c-40,0 -70,-30 -70,-61 0,-24 2,-43 21,-61 34,-30 90,-21 111,22 23,51 -15,100 -62,100zm-119 -76c0,112 113,161 198,93 27,-22 37,-57 37,-96 0,-88 -124,-150 -198,-76 -18,17 -37,45 -37,79z"/>
    <path class="fil2" d="M4787 418c0,-73 106,-95 132,-27 32,82 -75,131 -119,67 -6,-9 -13,-27 -13,-40zm-47 -8l0 17c0,54 54,108 108,108l17 0c54,0 108,-54 108,-108l0 -17c0,-54 -54,-108 -108,-108l-17 0c-54,0 -108,54 -108,108z"/>
    <path class="fil2" d="M5582 790c0,19 21,24 32,20 17,-6 16,-20 20,-38 22,-94 14,-206 -14,-296l-39 -94c-22,-43 -59,-15 -46,14 25,58 38,75 53,150 6,30 15,95 10,124 -5,32 -2,51 -11,90 -2,9 -5,17 -5,30z"/>
   </g>
  </g>
 </g>
</svg>
